<svg xmlns="http://www.w3.org/2000/svg" xml:space="preserve" width="28" height="28" viewBox="0 0 24 24"><circle cx="12" cy="12" r="12" style="fill:#00a03c"/><path fill="#fff" d="M16.2 17.981c-.61-.44-1.62-1.38-1.71-2.05-.12-.92.24-1.8.56-2.37l.14-.25-.18-.23c-.48-.61-.75-1.21-.82-1.77-.07-.6.56-1.68.97-2.22l.31-.4-.44-.24c-.69-.39-1.43-.54-2.15-.45-.37.05-.72.16-1.06.34.15-.49.15-1-.01-1.49 2.83.26 2.78-2.76 2.78-2.76l-.02-.01s-3.27-.81-3.33 2.68h.02c.21.47.23.99.07 1.47a3.3 3.3 0 0 0-.8-.23c-.73-.09-1.47.06-2.16.44l-.44.25.31.4c.27.36 1.04 1.54.97 2.22-.07.56-.34 1.16-.81 1.77l-.18.23.14.25c.32.57.67 1.45.55 2.37-.1.76-1.11 1.75-1.49 2.07l-.42.35.43.33c.5.38 1.12.65 1.72.73q.21.03.42.03c.78 0 1.55-.28 2.25-.81.83.63 1.76.9 2.67.78.6-.08 1.22-.34 1.72-.73l.46-.36z"/></svg>
