<svg xmlns="http://www.w3.org/2000/svg" xml:space="preserve" width="28" height="28" viewBox="0 0 24 24"><circle cx="12" cy="12" r="12" style="fill:#000"/><g fill="#fff"><path d="M19.16 10.77c0-.9-.72-1.58-1.68-1.58-.89 0-1.73.85-1.73 1.76v3.57l-3.92-.02-3.92.01v-3.57c0-.9-.84-1.76-1.73-1.76-.96 0-1.68.68-1.68 1.58 0 .89.56 1.59 1.34 1.67l-.01 4.76c0 .84.68 1.51 1.51 1.51h9.04c.8 0 1.45-.65 1.45-1.45l-.01-4.82c.78-.08 1.34-.78 1.34-1.66"/><path d="M8.41 10.94V14h4.74c.05-.1.1-.19.13-.27.04-.09.06-.16.11-.21-.01 0 .34-.7.13-1.36-.08-.27-.22-.48-.39-.63-.24.66-.86 1.27-1.59 1.54-.51.19-.86.11-1.06.01a.91.91 0 0 1-.45-.48c-.12-.33-.1-.67.05-.96.19-.37.58-.66 1.13-.82.48-.15 1.02-.18 1.5-.05 0-.53-.09-1.32-.45-1.85-.04-.05-.08-.11-.13-.15-.29.7-.93 1.28-1.63 1.43-.45.1-.78.07-1.03-.08a.8.8 0 0 1-.33-.51c-.09-.38.04-.81.33-1.14s.89-.69 2-.56c.12.01.23.04.34.07.01-.35-.11-.76-.6-1.07a2.2 2.2 0 0 0-.7-.3l.1-.49q.435.09.87.36c.63.39.92 1.03.82 1.75.14.12.27.26.39.44.47.71.55 1.72.53 2.31.35.21.64.55.79 1.04.27.88-.18 1.74-.2 1.78-.03.05-.04.09-.06.13l-.04.08h1.54v-3.07c0-.95.7-1.83 1.58-2.13V5c0-.55-.45-1-1-1h-8c-.55 0-1 .45-1 1v3.81c.88.31 1.58 1.18 1.58 2.13"/><path d="M11.03 8.39c-.66 0-1.01.22-1.19.42-.22.24-.25.52-.22.69.02.1.06.16.12.2.12.08.35.08.65.02.57-.13 1.1-.64 1.32-1.24a1 1 0 0 0-.3-.07c-.13-.02-.26-.02-.38-.02M10.53 11.86c-.09.18-.09.37-.02.58.03.08.1.15.19.19.11.06.33.1.67-.03.62-.23 1.16-.77 1.32-1.32-.19-.07-.39-.1-.6-.1-.24 0-.49.04-.72.11-.43.13-.71.33-.84.57"/></g></svg>
