<svg xmlns="http://www.w3.org/2000/svg" xml:space="preserve" width="28" height="28" viewBox="0 0 24 24"><circle cx="12" cy="12" r="12" style="fill:#787878"/><g fill="#fff"><path d="m12.882 6.26.77-1.6-3.63-.66.74 2.26zM17.832 16.12l-.88-.95-1.69.51-.14-.48 1.74-.52.47-.51c.18-.12.26-.34.19-.55l-.83-2.09-2.95-.84.14-.48 2.71.77.08-.59c.01-.1-.01-.2-.05-.29l-.12-.23a6.6 6.6 0 0 0-2.17-2.37l-1.18-.78v.04h-.92l.77 1.63-.46.22-.73-1.56-1.38 2.45-.44-.24 1.41-2.5h-.93l-2.64 1.76c-.1.07-.17.17-.2.28l-1 4.05a.4.4 0 0 0 0 .22l.16.65 2.76-1.58.25.43-3.14 1.8-.01-.01c-.19.38-.46.96-.57 1.35-.25.84.08 1.76.83 2.2.2.12.41.2.61.2h8.58c.71 0 1.36-.08 1.7-.71.18-.32.37-.78.03-1.28"/></g></svg>
